# AST/ASF file generated using VICON BodyLanguage
# -----------------------------------------------
:version 1.10
:name VICON
:units
  mass 1.0
  length 0.45
  angle deg
:documentation
   .ast/.asf automatically generated from VICON data using
   VICON BodyBuilder and BodyLanguage model FoxedUp or BRILLIANT.MOD
:root
   order TX TY TZ RX RY RZ
   axis XYZ
   position 0 0 0  
   orientation 0 0 0 
:bonedata
  begin
     id 1 
     name lhipjoint
     direction 0.575328 -0.747301 0.332475 
     length 2.40933 
     axis 0 0 0  XYZ
  end
  begin
     id 2 
     name lfemur
     direction 0.34202 -0.939693 0  
     length 7.31453  
     axis 0 0 20  XYZ
    dof rx ry rz
    limits (-160.0 20.0)
           (-70.0 70.0)
           (-60.0 70.0)
  end
  begin
     id 3 
     name ltibia
     direction 0.34202 -0.939693 0   
     length 7.82185   
     axis 0 0 20   XYZ
    dof rx
    limits (-10.0 170.0)
  end
  begin
     id 4 
     name lfoot
     direction 0.0795993 -0.218697 0.972541   
     length 2.19173   
     axis -90 7.62852e-016 20   XYZ
    dof rx rz
    limits (-45.0 90.0)
           (-70.0 20.0)
  end
  begin
     id 5 
     name ltoes
     direction 1.53537e-011 -4.21894e-011 1   
     length 1.10023   
     axis -90 7.62852e-016 20   XYZ
    dof rx
    limits (-90.0 20.0)
  end
  begin
     id 6 
     name rhipjoint
     direction -0.513884 -0.783789 0.348708   
     length 2.29716  
     axis 0 0 0  XYZ 
  end
  begin
     id 7 
     name rfemur
     direction -0.34202 -0.939693 0   
     length 7.59573   
     axis 0 0 -20   XYZ
    dof rx ry rz
    limits (-160.0 20.0)
           (-70.0 70.0)
           (-70.0 60.0)
  end
  begin
     id 8 
     name rtibia
     direction -0.34202 -0.939693 0   
     length 7.66402   
     axis 0 0 -20   XYZ
    dof rx
    limits (-10.0 170.0)
 end
 begin
     id 9 
     name rfoot
     direction -0.137793 -0.378584 0.915253   
     length 2.27056  
     axis -90 -7.62852e-016 -20   XYZ
    dof rx rz
    limits (-45.0 90.0)
           (-20.0 70.0)
  end
  begin
     id 10 
     name rtoes
     direction -1.53493e-011 -4.22159e-011 1   
     length 1.11766   
     axis -90 -7.62852e-016 -20   XYZ
    dof rx
    limits (-90.0 20.0)
  end
  begin
     id 11 
     name lowerback
     direction -0.00732775 0.998356 -0.05685   
     length 2.16513   
     axis 0 0 0   XYZ
    dof rx ry rz
    limits (-20.0 45.0)
           (-30.0 30.0)
           (-30.0 30.0)
  end
  begin
     id 12 
     name upperback
     direction 0.0218081 0.999627 -0.0164647   
     length 2.16755   
     axis 0 0 0   XYZ
    dof rx ry rz
    limits (-20.0 45.0)
           (-30.0 30.0)
           (-30.0 30.0)
  end
  begin
     id 13 
     name thorax
     direction 0.02365 0.999661 0.0108914   
     length 2.16932   
     axis 0 0 0   XYZ
    dof rx ry rz
    limits (-20.0 45.0)
           (-30.0 30.0)
           (-30.0 30.0)
  end
  begin
     id 14 
     name lowerneck
     direction -0.0523929 0.978385 0.200044   
     length 1.63877   
     axis 0 0 0   XYZ
    dof rx ry rz
    limits (-20.0 45.0)
           (-30.0 30.0)
           (-30.0 30.0)
  end
  begin
     id 15 
     name upperneck
     direction 0.0448674 0.981321 -0.187074   
     length 1.69014   
     axis 0 0 0   XYZ
    dof rx ry rz
    limits (-20.0 45.0)
           (-30.0 30.0)
           (-30.0 30.0)
  end
  begin
     id 16
     name head
     direction 0.0199089 0.996118 -0.0857429  
     length 1.70094  
     axis 0 0 0   XYZ
    dof rx ry rz
    limits (-20.0 45.0)
           (-30.0 30.0)
           (-30.0 30.0)
  end
  begin
     id 17 
     name lclavicle
     direction 0.940366 0.30191 -0.156722  
     length 3.37521  
     axis 0 0 0   XYZ
    dof ry rz
    limits (-20.0 10.0)
           (0.0 20.0)
  end
  begin
     id 18 
     name lhumerus
     direction 1 -4.4897e-011 -1.7911e-027   
     length 5.25287   
     axis 180 -30 -90   XYZ
    dof rx ry rz
    limits (-60.0 90.0)
           (-90.0 90.0)
           (-90.0 90.0)
  end
  begin
     id 19
     name lradius
     direction 1 -4.48951e-011 1.04424e-027   
     length 3.51014   
     axis 180 -30 -90   XYZ
    dof rx
    limits (-10.0 170.0)
  end
  begin
     id 20
     name lwrist
     direction 1 -4.48997e-011 -9.5942e-028   
     length 1.75507   
     axis 8.48502e-016 90 90   XYZ
    dof ry
    limits (-180.0 0.0)
 end
  begin
     id 21 
     name lhand
     direction 1 -4.48831e-011 -1.90777e-027   
     length 0.706179   
     axis 1.22306e-015 90 90   XYZ
    dof rx rz
    limits (-90.0 90.0)
           (-45.0 45.0)
  end
  begin
     id 22 
     name lfingers
     direction 1 -4.49108e-011 -3.85244e-027   
     length 0.569339   
     axis 2.44611e-015 90 90   XYZ
    dof rx
    limits (0.0 90.0)
  end
  begin
     id 23
     name lthumb
     direction 0.707107 -6.34953e-011 0.707107   
     length 0.817461   
     axis -90 45 -1.62303e-014   XYZ
    dof rx rz
    limits (-45.0 45.0)
           (-45.0 45.0)
  end
  begin
     id 24 
     name rclavicle
     direction -0.905329 0.382405 -0.184787   
     length 3.30787  
     axis 0 0 0   XYZ 
    dof ry rz
    limits (-10.0 20.0)
           (-20.0 0.0)
  end
  begin
     id 25 
     name rhumerus
     direction -1 -4.48953e-011 -9.15316e-029  
     length 5.28721   
     axis 180 30 90   XYZ
    dof rx ry rz
    limits (-90.0 60.0)
           (-90.0 90.0)
           (-90.0 90.0)
  end
  begin
     id 26 
     name rradius
     direction -1 -4.48987e-011 9.37824e-028   
     length 3.50544   
     axis 180 30 90   XYZ
    dof rx
    limits (-10.0 170.0)
  end
  begin
     id 27 
     name rwrist
     direction -1 -4.48967e-011 -9.58414e-028   
     length 1.75272   
     axis 8.48502e-016 -90 -90   XYZ
    dof ry
    limits (-180.0 0.0)
  end
  begin
     id 28
     name rhand
     direction -1 -4.48904e-011 -1.91266e-027   
     length 0.884996   
     axis 1.22306e-015 -90 -90   XYZ
    dof rx rz
    limits (-90.0 90.0)
           (-45.0 45.0)
  end
  begin
     id 29
     name rfingers
     direction -1 -4.4909e-011 -3.85015e-027   
     length 0.713507   
     axis 2.44611e-015 -90 -90   XYZ
    dof rx
    limits (0.0 90.0)
  end
  begin
     id 30
     name rthumb
     direction -0.707107 -6.34853e-011 0.707107   
     length 1.02446   
     axis -90 -45 1.62303e-014   XYZ
    dof rx rz
    limits (-45.0 45.0)
           (-45.0 45.0)
  end
:hierarchy
  begin
    root lhipjoint rhipjoint lowerback
    lhipjoint lfemur
    lfemur ltibia
    ltibia lfoot
    lfoot ltoes
    rhipjoint rfemur
    rfemur rtibia
    rtibia rfoot
    rfoot rtoes
    lowerback upperback
    upperback thorax
    thorax lowerneck lclavicle rclavicle
    lowerneck upperneck
    upperneck head
    lclavicle lhumerus
    lhumerus lradius
    lradius lwrist
    lwrist lhand lthumb
    lhand lfingers
    rclavicle rhumerus
    rhumerus rradius
    rradius rwrist
    rwrist rhand rthumb
    rhand rfingers
  end

#!OML:ASF F:\twosubjects\two\Thursday\Session 1\justin.ASF
:FULLY-SPECIFIED
:DEGREES
64
root 8.38506 16.4561 -19.5242 1.97221 -72.1487 3.50383
lowerback 4.35238 0.59158 -1.73928
upperback 0.0167645 0.742467 2.0795
thorax -2.47388 0.399102 3.0717
lowerneck -21.1827 6.71437 -2.52293
upperneck 17.9474 9.87034 0.593938
head 8.93839 4.49661 1.93901
rclavicle -2.18663e-015 -9.54166e-015
rhumerus -31.3132 -11.4501 -82.3049
rradius 34.7779
rwrist -9.86561
rhand -15.333 10.5473
rfingers 7.12502
rthumb 10.8436 -19.1528
lclavicle -2.18663e-015 -9.54166e-015
lhumerus -30.7458 -1.47737 92.1233
lradius 32.7249
lwrist -7.71084
lhand 0.499906 41.4242
lfingers 7.12502
lthumb 26.0691 69.6553
rfemur -24.3963 -4.10623 18.7234
rtibia 57.3534
rfoot -33.6868 -9.18417
rtoes -11.4905
lfemur -25.0529 2.08085 -17.2307
ltibia 51.8408
lfoot -25.8487 1.61329
ltoes -10.0632
65
root 8.41901 16.3555 -19.5323 1.55816 -72.3025 3.58009
lowerback 5.26712 0.599698 -1.80663
upperback 0.224685 0.738188 2.12632
thorax -2.7741 0.398247 3.15358
lowerneck -21.4943 6.77758 -2.28992
upperneck 17.3695 9.99036 0.0704803
head 8.83464 4.52187 1.73896
rclavicle 6.95746e-016 -1.03368e-014
rhumerus -31.2102 -11.3229 -82.551
rradius 35.5179
rwrist -10.7467
rhand -14.8237 10.3041
rfingers 7.12502
rthumb 11.3348 -19.3696
lclavicle 6.95746e-016 -1.03368e-014
lhumerus -30.6949 -1.28759 92.2623
lradius 33.3498
lwrist -7.68841
lhand 0.995289 41.0043
lfingers 7.12502
lthumb 26.5433 69.1646
rfemur -25.262 -3.96453 18.7291
rtibia 59.4338
rfoot -33.8632 -9.62974
rtoes -13.1563
lfemur -25.8602 2.24458 -17.2156
ltibia 53.9085
lfoot -26.2731 1.49247
ltoes -9.3806
66
root 8.45565 16.2541 -19.5435 1.04098 -72.3464 3.70118
lowerback 6.28343 0.617806 -1.8543
upperback 0.426299 0.745663 2.17552
thorax -3.13765 0.40355 3.22617
lowerneck -21.6545 6.75916 -2.45349
upperneck 16.6756 10.0341 -0.116637
head 8.62594 4.5306 1.69176
rclavicle 1.96797e-014 0
rhumerus -31.194 -11.0507 -82.8328
rradius 36.375
rwrist -12.0396
rhand -14.5017 9.8358
rfingers 7.12502
rthumb 11.6453 -19.8206
lclavicle 1.96797e-014 0
lhumerus -30.6693 -1.87751 92.8023
lradius 33.8222
lwrist -5.92613
lhand -0.456882 40.1825
lfingers 7.12502
lthumb 25.1527 68.5454
rfemur -26.0777 -3.90259 18.7108
rtibia 61.5657
rfoot -34.1751 -9.85507
rtoes -13.8006
lfemur -26.5962 2.34349 -17.1977
ltibia 55.8861
lfoot -26.6163 1.52123
ltoes -9.70896
67
root 8.49655 16.1517 -19.5487 0.631194 -72.2612 3.8903
lowerback 7.11592 0.544123 -1.76437
upperback 0.629351 0.639737 2.14039
thorax -3.38498 0.348346 3.14598
lowerneck -21.6372 6.75347 -2.64402
upperneck 15.5997 10.0625 -0.227287
head 8.25239 4.55497 1.65323
rclavicle -2.22639e-014 6.36111e-015
rhumerus -30.9754 -10.7123 -83.1572
rradius 37.0497
rwrist -13.2419
rhand -14.1251 9.66963
rfingers 7.12502
rthumb 12.0085 -19.9659
lclavicle -2.22639e-014 6.36111e-015
lhumerus -30.5995 -2.93239 93.3924
lradius 34.3065
lwrist -3.19904
lhand -3.05523 39.7789
lfingers 7.12502
lthumb 22.661 68.4685
rfemur -27.0937 -4.0825 18.6248
rtibia 63.7215
rfoot -34.4539 -9.73904
rtoes -13.9915
lfemur -27.5266 2.26671 -17.2198
ltibia 57.7976
lfoot -26.9339 1.38608
ltoes -10.2286
68
root 8.52081 16.0485 -19.5443 0.154128 -72.6002 4.37539
lowerback 7.35209 0.607494 -1.83796
upperback 0.898425 0.709356 2.1265
thorax -3.24385 0.377066 3.16541
lowerneck -21.6973 6.79717 -2.64945
upperneck 14.5217 10.1434 -0.557686
head 7.91647 4.58979 1.52524
rclavicle -1.49089e-015 1.66979e-014
rhumerus -30.5758 -10.4705 -83.4233
rradius 37.4264
rwrist -13.9438
rhand -14.4028 9.91473
rfingers 7.12502
rthumb 11.7407 -19.7362
lclavicle -1.49089e-015 1.66979e-014
lhumerus -30.2747 -3.14906 93.6129
lradius 34.822
lwrist -2.82236
lhand -2.34263 40.5629
lfingers 7.12502
lthumb 23.3447 69.1673
rfemur -28.2726 -3.87163 18.4306
rtibia 65.7948
rfoot -34.6026 -9.55217
rtoes -14.4857
lfemur -28.5178 2.65398 -17.3079
ltibia 59.6081
lfoot -27.7452 0.983447
ltoes -10.5715
